<?xml version="1.0" encoding="iso-8859-1"?>
<!-- Generator: Adobe Illustrator 19.0.0, SVG Export Plug-In . SVG Version: 6.00 Build 0)  -->
<svg version="1.1" id="Capa_1" xmlns="http://www.w3.org/2000/svg" xmlns:xlink="http://www.w3.org/1999/xlink" x="0px" y="0px"
	 viewBox="-150 -150 812 812" style="enable-background:new 0 0 512 512;" xml:space="preserve">
<path style="fill:#ECF0F1;" d="M483.31,512H28.69C12.844,512,0,499.156,0,483.31V105.931h512V483.31
	C512,499.156,499.156,512,483.31,512z"/>
<path style="fill:#687492;" d="M512,105.931H0V28.69C0,12.844,12.844,0,28.69,0H483.31C499.156,0,512,12.844,512,28.69V105.931z"/>
<rect x="35.31" y="35.31" style="fill:#E64C3C;" width="35.31" height="35.31"/>
<rect x="105.931" y="35.31" style="fill:#F0C419;" width="35.31" height="35.31"/>
<rect x="176.552" y="35.31" style="fill:#24AE5F;" width="35.31" height="35.31"/>
<rect x="44.138" y="150.069" style="fill:#26B99A;" width="423.724" height="167.724"/>
<g>
	<path style="fill:#FFFFFF;" d="M176.552,282.483c-2.26,0-4.52-0.865-6.241-2.586c-3.452-3.452-3.452-9.031,0-12.482l35.31-35.31
		c3.443-3.452,9.039-3.452,12.482,0c3.452,3.452,3.452,9.031,0,12.482l-35.31,35.31
		C181.071,281.618,178.812,282.483,176.552,282.483z"/>
	<path style="fill:#FFFFFF;" d="M247.172,282.483c-2.26,0-4.52-0.865-6.241-2.586l-35.31-35.31c-3.452-3.452-3.452-9.031,0-12.482
		c3.443-3.452,9.039-3.452,12.482,0l35.31,35.31c3.452,3.452,3.452,9.031,0,12.482C251.692,281.618,249.432,282.483,247.172,282.483
		z"/>
	<path style="fill:#FFFFFF;" d="M229.517,264.828c-2.26,0-4.52-0.865-6.241-2.586c-3.452-3.452-3.452-9.031,0-12.482l35.31-35.31
		c3.443-3.452,9.039-3.452,12.482,0c3.452,3.452,3.452,9.031,0,12.482l-35.31,35.31
		C234.037,263.962,231.777,264.828,229.517,264.828z"/>
	<path style="fill:#FFFFFF;" d="M300.138,264.828c-2.26,0-4.52-0.865-6.241-2.586l-35.31-35.31c-3.452-3.452-3.452-9.031,0-12.482
		c3.443-3.452,9.039-3.452,12.482,0l35.31,35.31c3.452,3.452,3.452,9.031,0,12.482C304.658,263.962,302.398,264.828,300.138,264.828
		z"/>
	<path style="fill:#FFFFFF;" d="M344.073,220.69h-17.249c-4.988,0-9.031-4.043-9.031-9.031V194.41c0-4.988,4.043-9.031,9.031-9.031
		h17.249c4.988,0,9.031,4.043,9.031,9.031v17.249C353.103,216.647,349.06,220.69,344.073,220.69z"/>
</g>
<g>
	<path style="fill:#BDC3C7;" d="M361.931,370.759H44.138c-4.873,0-8.828-3.946-8.828-8.828c0-4.882,3.955-8.828,8.828-8.828h317.793
		c4.873,0,8.828,3.946,8.828,8.828C370.759,366.813,366.804,370.759,361.931,370.759z"/>
	<path style="fill:#BDC3C7;" d="M467.862,370.759h-61.793c-4.873,0-8.828-3.946-8.828-8.828c0-4.882,3.955-8.828,8.828-8.828h61.793
		c4.873,0,8.828,3.946,8.828,8.828C476.69,366.813,472.735,370.759,467.862,370.759z"/>
	<path style="fill:#BDC3C7;" d="M467.862,406.069H150.069c-4.873,0-8.828-3.946-8.828-8.828c0-4.882,3.955-8.828,8.828-8.828
		h317.793c4.873,0,8.828,3.946,8.828,8.828C476.69,402.123,472.735,406.069,467.862,406.069z"/>
	<path style="fill:#BDC3C7;" d="M105.931,406.069H44.138c-4.873,0-8.828-3.946-8.828-8.828c0-4.882,3.955-8.828,8.828-8.828h61.793
		c4.873,0,8.828,3.946,8.828,8.828C114.759,402.123,110.804,406.069,105.931,406.069z"/>
	<path style="fill:#BDC3C7;" d="M361.931,441.379H44.138c-4.873,0-8.828-3.946-8.828-8.828c0-4.882,3.955-8.828,8.828-8.828h317.793
		c4.873,0,8.828,3.946,8.828,8.828C370.759,437.433,366.804,441.379,361.931,441.379z"/>
	<path style="fill:#BDC3C7;" d="M467.862,441.379h-61.793c-4.873,0-8.828-3.946-8.828-8.828c0-4.882,3.955-8.828,8.828-8.828h61.793
		c4.873,0,8.828,3.946,8.828,8.828C476.69,437.433,472.735,441.379,467.862,441.379z"/>
	<path style="fill:#BDC3C7;" d="M467.862,476.69H150.069c-4.873,0-8.828-3.946-8.828-8.828c0-4.882,3.955-8.828,8.828-8.828h317.793
		c4.873,0,8.828,3.946,8.828,8.828C476.69,472.744,472.735,476.69,467.862,476.69z"/>
	<path style="fill:#BDC3C7;" d="M105.931,476.69H44.138c-4.873,0-8.828-3.946-8.828-8.828c0-4.882,3.955-8.828,8.828-8.828h61.793
		c4.873,0,8.828,3.946,8.828,8.828C114.759,472.744,110.804,476.69,105.931,476.69z"/>
</g>
<g>
</g>
<g>
</g>
<g>
</g>
<g>
</g>
<g>
</g>
<g>
</g>
<g>
</g>
<g>
</g>
<g>
</g>
<g>
</g>
<g>
</g>
<g>
</g>
<g>
</g>
<g>
</g>
<g>
</g>
</svg>
